REM DIRINDEX 1\4,1\2\5,1\2\6,1\3\7,1\3\8
REM DIRNAME folder01,folder02,folder03,folder04,folder05,folder06,folder07,folder08
TITLE ""
FILE "013_Day07_Check2_Phrases.mp3" MP3
  TRACK 01 AUDIO
    TITLE "0:"
    INDEX 01 00:00:00
  TRACK 02 AUDIO
    TITLE "4:cjc124_0397"
    INDEX 01 00:00:31
  TRACK 03 AUDIO
    TITLE "0:"
    INDEX 01 00:01:46
  TRACK 04 AUDIO
    TITLE "5:cjc124_0398"
    INDEX 01 00:02:00
  TRACK 05 AUDIO
    TITLE "0:"
    INDEX 01 00:03:61
  TRACK 06 AUDIO
    TITLE "6:cjc124_0399"
    INDEX 01 00:04:07
  TRACK 07 AUDIO
    TITLE "0:"
    INDEX 01 00:05:63
  TRACK 08 AUDIO
    TITLE "5:cjc124_0400"
    INDEX 01 00:06:31
  TRACK 09 AUDIO
    TITLE "0:"
    INDEX 01 00:08:42
  TRACK 10 AUDIO
    TITLE "6:cjc124_0401"
    INDEX 01 00:08:66
  TRACK 11 AUDIO
    TITLE "0:"
    INDEX 01 00:10:45
  TRACK 12 AUDIO
    TITLE "5:cjc124_0402"
    INDEX 01 00:11:11
  TRACK 13 AUDIO
    TITLE "0:"
    INDEX 01 00:12:48
  TRACK 14 AUDIO
    TITLE "6:cjc124_0403"
    INDEX 01 00:12:67
  TRACK 15 AUDIO
    TITLE "0:"
    INDEX 01 00:14:45
  TRACK 16 AUDIO
    TITLE "5:cjc124_0404"
    INDEX 01 00:15:13
  TRACK 17 AUDIO
    TITLE "0:"
    INDEX 01 00:16:71
  TRACK 18 AUDIO
    TITLE "6:cjc124_0405"
    INDEX 01 00:17:21
  TRACK 19 AUDIO
    TITLE "0:"
    INDEX 01 00:18:68
  TRACK 20 AUDIO
    TITLE "5:cjc124_0406"
    INDEX 01 00:19:38
  TRACK 21 AUDIO
    TITLE "0:"
    INDEX 01 00:21:11
  TRACK 22 AUDIO
    TITLE "6:cjc124_0407"
    INDEX 01 00:21:31
  TRACK 23 AUDIO
    TITLE "0:"
    INDEX 01 00:22:42
  TRACK 24 AUDIO
    TITLE "5:cjc124_0408"
    INDEX 01 00:23:08
  TRACK 25 AUDIO
    TITLE "0:"
    INDEX 01 00:24:47
  TRACK 26 AUDIO
    TITLE "6:cjc124_0409"
    INDEX 01 00:25:07
  TRACK 27 AUDIO
    TITLE "0:"
    INDEX 01 00:26:44
  TRACK 28 AUDIO
    TITLE "5:cjc124_0410"
    INDEX 01 00:27:08
  TRACK 29 AUDIO
    TITLE "0:"
    INDEX 01 00:28:70
  TRACK 30 AUDIO
    TITLE "6:cjc124_0411"
    INDEX 01 00:29:15
  TRACK 31 AUDIO
    TITLE "0:"
    INDEX 01 00:30:46
  TRACK 32 AUDIO
    TITLE "5:cjc124_0412"
    INDEX 01 00:31:16
  TRACK 33 AUDIO
    TITLE "0:"
    INDEX 01 00:33:50
  TRACK 34 AUDIO
    TITLE "6:cjc124_0413"
    INDEX 01 00:34:00
  TRACK 35 AUDIO
    TITLE "0:"
    INDEX 01 00:35:64
  TRACK 36 AUDIO
    TITLE "5:cjc124_0414"
    INDEX 01 00:36:27
  TRACK 37 AUDIO
    TITLE "0:"
    INDEX 01 00:38:16
  TRACK 38 AUDIO
    TITLE "6:cjc124_0415"
    INDEX 01 00:38:35
  TRACK 39 AUDIO
    TITLE "0:"
    INDEX 01 00:39:72
  TRACK 40 AUDIO
    TITLE "5:cjc124_0416"
    INDEX 01 00:40:48
  TRACK 41 AUDIO
    TITLE "0:"
    INDEX 01 00:42:35
  TRACK 42 AUDIO
    TITLE "6:cjc124_0417"
    INDEX 01 00:42:57
  TRACK 43 AUDIO
    TITLE "0:"
    INDEX 01 00:44:18
  TRACK 44 AUDIO
    TITLE "5:cjc124_0418"
    INDEX 01 00:44:58
  TRACK 45 AUDIO
    TITLE "0:"
    INDEX 01 00:46:74
  TRACK 46 AUDIO
    TITLE "6:cjc124_0419"
    INDEX 01 00:47:19
  TRACK 47 AUDIO
    TITLE "0:"
    INDEX 01 00:49:14
  TRACK 48 AUDIO
    TITLE "5:cjc124_0420"
    INDEX 01 00:49:57
  TRACK 49 AUDIO
    TITLE "0:"
    INDEX 01 00:51:54
  TRACK 50 AUDIO
    TITLE "6:cjc124_0421"
    INDEX 01 00:52:02
  TRACK 51 AUDIO
    TITLE "0:"
    INDEX 01 00:53:45
  TRACK 52 AUDIO
    TITLE "5:cjc124_0422"
    INDEX 01 00:54:13
  TRACK 53 AUDIO
    TITLE "0:"
    INDEX 01 00:56:12
  TRACK 54 AUDIO
    TITLE "6:cjc124_0423"
    INDEX 01 00:56:29
  TRACK 55 AUDIO
    TITLE "0:"
    INDEX 01 00:57:58
  TRACK 56 AUDIO
    TITLE "5:cjc124_0424"
    INDEX 01 00:58:22
  TRACK 57 AUDIO
    TITLE "0:"
    INDEX 01 01:00:08
  TRACK 58 AUDIO
    TITLE "6:cjc124_0425"
    INDEX 01 01:00:31
  TRACK 59 AUDIO
    TITLE "0:"
    INDEX 01 01:01:68
  TRACK 60 AUDIO
    TITLE "5:cjc124_0426"
    INDEX 01 01:02:34
  TRACK 61 AUDIO
    TITLE "0:"
    INDEX 01 01:04:13
  TRACK 62 AUDIO
    TITLE "6:cjc124_0427"
    INDEX 01 01:04:37
  TRACK 63 AUDIO
    TITLE "0:"
    INDEX 01 01:05:73
  TRACK 64 AUDIO
    TITLE "5:cjc124_0428"
    INDEX 01 01:06:45
  TRACK 65 AUDIO
    TITLE "0:"
    INDEX 01 01:08:44
  TRACK 66 AUDIO
    TITLE "6:cjc124_0429"
    INDEX 01 01:08:66
  TRACK 67 AUDIO
    TITLE "0:"
    INDEX 01 01:10:55
